<svg xmlns="http://www.w3.org/2000/svg">
<defs>
<symbol viewBox="0 0 32 32" id="cib-github"><path fill="currentColor" d="M16 .396c-8.839 0-16 7.167-16 16c0 7.073 4.584 13.068 10.937 15.183c.803.151 1.093-.344 1.093-.772c0-.38-.009-1.385-.015-2.719c-4.453.964-5.391-2.151-5.391-2.151c-.729-1.844-1.781-2.339-1.781-2.339c-1.448-.989.115-.968.115-.968c1.604.109 2.448 1.645 2.448 1.645c1.427 2.448 3.744 1.74 4.661 1.328c.14-1.031.557-1.74 1.011-2.135c-3.552-.401-7.287-1.776-7.287-7.907c0-1.751.62-3.177 1.645-4.297c-.177-.401-.719-2.031.141-4.235c0 0 1.339-.427 4.4 1.641a15.4 15.4 0 0 1 4-.541c1.36.009 2.719.187 4 .541c3.043-2.068 4.381-1.641 4.381-1.641c.859 2.204.317 3.833.161 4.235c1.015 1.12 1.635 2.547 1.635 4.297c0 6.145-3.74 7.5-7.296 7.891c.556.479 1.077 1.464 1.077 2.959c0 2.14-.02 3.864-.02 4.385c0 .416.28.916 1.104.755c6.4-2.093 10.979-8.093 10.979-15.156c0-8.833-7.161-16-16-16z"></path></symbol>
<symbol viewBox="0 0 512 512" id="fa6-solid-ban"><path fill="currentColor" d="M367.2 412.5L99.5 144.8C77.1 176.1 64 214.5 64 256c0 106 86 192 192 192c41.5 0 79.9-13.1 111.2-35.5m45.3-45.3C434.9 335.9 448 297.5 448 256c0-106-86-192-192-192c-41.5 0-79.9 13.1-111.2 35.5zM0 256a256 256 0 1 1 512 0a256 256 0 1 1-512 0"></path></symbol>
<symbol viewBox="0 0 448 512" id="fa6-solid-database"><path fill="currentColor" d="M448 80v48c0 44.2-100.3 80-224 80S0 172.2 0 128V80C0 35.8 100.3 0 224 0s224 35.8 224 80m-54.8 134.7c20.8-7.4 39.9-16.9 54.8-28.6V288c0 44.2-100.3 80-224 80S0 332.2 0 288V186.1c14.9 11.8 34 21.2 54.8 28.6C99.7 230.7 159.5 240 224 240s124.3-9.3 169.2-25.3M0 346.1c14.9 11.8 34 21.2 54.8 28.6C99.7 390.7 159.5 400 224 400s124.3-9.3 169.2-25.3c20.8-7.4 39.9-16.9 54.8-28.6V432c0 44.2-100.3 80-224 80S0 476.2 0 432z"></path></symbol>
<symbol viewBox="0 0 512 512" id="fa6-solid-microchip"><path fill="currentColor" d="M176 24c0-13.3-10.7-24-24-24s-24 10.7-24 24v40c-35.3 0-64 28.7-64 64H24c-13.3 0-24 10.7-24 24s10.7 24 24 24h40v56H24c-13.3 0-24 10.7-24 24s10.7 24 24 24h40v56H24c-13.3 0-24 10.7-24 24s10.7 24 24 24h40c0 35.3 28.7 64 64 64v40c0 13.3 10.7 24 24 24s24-10.7 24-24v-40h56v40c0 13.3 10.7 24 24 24s24-10.7 24-24v-40h56v40c0 13.3 10.7 24 24 24s24-10.7 24-24v-40c35.3 0 64-28.7 64-64h40c13.3 0 24-10.7 24-24s-10.7-24-24-24h-40v-56h40c13.3 0 24-10.7 24-24s-10.7-24-24-24h-40v-56h40c13.3 0 24-10.7 24-24s-10.7-24-24-24h-40c0-35.3-28.7-64-64-64V24c0-13.3-10.7-24-24-24s-24 10.7-24 24v40h-56V24c0-13.3-10.7-24-24-24s-24 10.7-24 24v40h-56zm-16 104h192c17.7 0 32 14.3 32 32v192c0 17.7-14.3 32-32 32H160c-17.7 0-32-14.3-32-32V160c0-17.7 14.3-32 32-32m192 32H160v192h192z"></path></symbol>
<symbol viewBox="0 0 320 512" id="fa6-solid-pause"><path fill="currentColor" d="M48 64C21.5 64 0 85.5 0 112v288c0 26.5 21.5 48 48 48h32c26.5 0 48-21.5 48-48V112c0-26.5-21.5-48-48-48zm192 0c-26.5 0-48 21.5-48 48v288c0 26.5 21.5 48 48 48h32c26.5 0 48-21.5 48-48V112c0-26.5-21.5-48-48-48z"></path></symbol>
<symbol viewBox="0 0 384 512" id="fa6-solid-play"><path fill="currentColor" d="M73 39c-14.8-9.1-33.4-9.4-48.5-.9S0 62.6 0 80v352c0 17.4 9.4 33.4 24.5 41.9S58.2 482 73 473l288-176c14.3-8.7 23-24.2 23-41s-8.7-32.2-23-41z"></path></symbol>
<symbol viewBox="0 0 512 512" id="fa6-solid-skull"><path fill="currentColor" d="M416 398.9c58.5-41.1 96-104.1 96-174.9C512 100.3 397.4 0 256 0S0 100.3 0 224c0 70.7 37.5 133.8 96 174.9V464c0 26.5 21.5 48 48 48h48v-48c0-8.8 7.2-16 16-16s16 7.2 16 16v48h64v-48c0-8.8 7.2-16 16-16s16 7.2 16 16v48h48c26.5 0 48-21.5 48-48zM96 256a64 64 0 1 1 128 0a64 64 0 1 1-128 0m256-64a64 64 0 1 1 0 128a64 64 0 1 1 0-128"></path></symbol>
<symbol viewBox="0 0 320 512" id="fa6-solid-sort-down"><path fill="currentColor" d="M182.6 470.6c-12.5 12.5-32.8 12.5-45.3 0l-128-128c-9.2-9.2-11.9-22.9-6.9-34.9S19 287.9 32 287.9h256c12.9 0 24.6 7.8 29.6 19.8s2.2 25.7-6.9 34.9l-128 128z"></path></symbol>
<symbol viewBox="0 0 320 512" id="fa6-solid-sort-up"><path fill="currentColor" d="M182.6 41.4c-12.5-12.5-32.8-12.5-45.3 0l-128 128c-9.2 9.2-11.9 22.9-6.9 34.9S19 224.1 32 224.1h256c12.9 0 24.6-7.8 29.6-19.8s2.2-25.7-6.9-34.9l-128-128z"></path></symbol>
<symbol viewBox="0 0 576 512" id="fa6-solid-terminal"><path fill="currentColor" d="M9.4 86.6c-12.5-12.5-12.5-32.7 0-45.2s32.8-12.5 45.3 0l192 192c12.5 12.5 12.5 32.8 0 45.3l-192 192c-12.5 12.5-32.8 12.5-45.3 0s-12.5-32.8 0-45.3L178.7 256zM256 416h288c17.7 0 32 14.3 32 32s-14.3 32-32 32H256c-17.7 0-32-14.3-32-32s14.3-32 32-32"></path></symbol>
<symbol viewBox="0 0 448 512" id="fa6-solid-user"><path fill="currentColor" d="M224 256a128 128 0 1 0 0-256a128 128 0 1 0 0 256m-45.7 48C79.8 304 0 383.8 0 482.3C0 498.7 13.3 512 29.7 512h388.6c16.4 0 29.7-13.3 29.7-29.7c0-98.5-79.8-178.3-178.3-178.3z"></path></symbol>
<symbol viewBox="0 0 448 512" id="fa6-solid-bars"><path fill="currentColor" d="M0 96c0-17.7 14.3-32 32-32h384c17.7 0 32 14.3 32 32s-14.3 32-32 32H32c-17.7 0-32-14.3-32-32m0 160c0-17.7 14.3-32 32-32h384c17.7 0 32 14.3 32 32s-14.3 32-32 32H32c-17.7 0-32-14.3-32-32m448 160c0 17.7-14.3 32-32 32H32c-17.7 0-32-14.3-32-32s14.3-32 32-32h384c17.7 0 32 14.3 32 32"></path></symbol>
<symbol viewBox="0 0 512 512" id="fa6-solid-sun"><path fill="currentColor" d="M361.5 1.2c5 2.1 8.6 6.6 9.6 11.9L391 121l107.9 19.8c5.3 1 9.8 4.6 11.9 9.6s1.5 10.7-1.6 15.2L446.9 256l62.3 90.3c3.1 4.5 3.7 10.2 1.6 15.2s-6.6 8.6-11.9 9.6L391 391l-19.9 107.9c-1 5.3-4.6 9.8-9.6 11.9s-10.7 1.5-15.2-1.6L256 446.9l-90.3 62.3c-4.5 3.1-10.2 3.7-15.2 1.6s-8.6-6.6-9.6-11.9L121 391L13.1 371.1c-5.3-1-9.8-4.6-11.9-9.6s-1.5-10.7 1.6-15.2L65.1 256L2.8 165.7c-3.1-4.5-3.7-10.2-1.6-15.2s6.6-8.6 11.9-9.6L121 121l19.9-107.9c1-5.3 4.6-9.8 9.6-11.9s10.7-1.5 15.2 1.6L256 65.1l90.3-62.3c4.5-3.1 10.2-3.7 15.2-1.6M160 256a96 96 0 1 1 192 0a96 96 0 1 1-192 0m224 0a128 128 0 1 0-256 0a128 128 0 1 0 256 0"></path></symbol>
<symbol viewBox="0 0 384 512" id="fa6-solid-moon"><path fill="currentColor" d="M223.5 32C100 32 0 132.3 0 256s100 224 223.5 224c60.6 0 115.5-24.2 155.8-63.4c5-4.9 6.3-12.5 3.1-18.7s-10.1-9.7-17-8.5c-9.8 1.7-19.8 2.6-30.1 2.6c-96.9 0-175.5-78.8-175.5-176c0-65.8 36-123.1 89.3-153.3c6.1-3.5 9.2-10.5 7.7-17.3s-7.3-11.9-14.3-12.5c-6.3-.5-12.6-.8-19-.8z"></path></symbol>
<symbol viewBox="0 0 512 512" id="fa6-solid-gear"><path fill="currentColor" d="M495.9 166.6c3.2 8.7.5 18.4-6.4 24.6l-43.3 39.4c1.1 8.3 1.7 16.8 1.7 25.4s-.6 17.1-1.7 25.4l43.3 39.4c6.9 6.2 9.6 15.9 6.4 24.6c-4.4 11.9-9.7 23.3-15.8 34.3l-4.7 8.1c-6.6 11-14 21.4-22.1 31.2c-5.9 7.2-15.7 9.6-24.5 6.8l-55.7-17.7c-13.4 10.3-28.2 18.9-44 25.4l-12.5 57.1c-2 9.1-9 16.3-18.2 17.8c-13.8 2.3-28 3.5-42.5 3.5s-28.7-1.2-42.5-3.5c-9.2-1.5-16.2-8.7-18.2-17.8l-12.5-57.1c-15.8-6.5-30.6-15.1-44-25.4l-55.6 17.8c-8.8 2.8-18.6.3-24.5-6.8c-8.1-9.8-15.5-20.2-22.1-31.2l-4.7-8.1c-6.1-11-11.4-22.4-15.8-34.3c-3.2-8.7-.5-18.4 6.4-24.6l43.3-39.4c-1.1-8.4-1.7-16.9-1.7-25.5s.6-17.1 1.7-25.4l-43.3-39.4c-6.9-6.2-9.6-15.9-6.4-24.6c4.4-11.9 9.7-23.3 15.8-34.3l4.7-8.1c6.6-11 14-21.4 22.1-31.2c5.9-7.2 15.7-9.6 24.5-6.8l55.7 17.7c13.4-10.3 28.2-18.9 44-25.4l12.5-57.1c2-9.1 9-16.3 18.2-17.8C227.3 1.2 241.5 0 256 0s28.7 1.2 42.5 3.5c9.2 1.5 16.2 8.7 18.2 17.8l12.5 57.1c15.8 6.5 30.6 15.1 44 25.4l55.7-17.7c8.8-2.8 18.6-.3 24.5 6.8c8.1 9.8 15.5 20.2 22.1 31.2l4.7 8.1c6.1 11 11.4 22.4 15.8 34.3zM256 336a80 80 0 1 0 0-160a80 80 0 1 0 0 160"></path></symbol>
<symbol viewBox="0 0 512 512" id="fa6-solid-gauge"><path fill="currentColor" d="M0 256a256 256 0 1 1 512 0a256 256 0 1 1-512 0m320 96c0-26.9-16.5-49.9-40-59.3V88c0-13.3-10.7-24-24-24s-24 10.7-24 24v204.7c-23.5 9.5-40 32.5-40 59.3c0 35.3 28.7 64 64 64s64-28.7 64-64M144 176a32 32 0 1 0 0-64a32 32 0 1 0 0 64m-16 80a32 32 0 1 0-64 0a32 32 0 1 0 64 0m288 32a32 32 0 1 0 0-64a32 32 0 1 0 0 64m-16-144a32 32 0 1 0-64 0a32 32 0 1 0 64 0"></path></symbol>
<symbol viewBox="0 0 512 512" id="fa6-solid-list"><path fill="currentColor" d="M40 48c-13.3 0-24 10.7-24 24v48c0 13.3 10.7 24 24 24h48c13.3 0 24-10.7 24-24V72c0-13.3-10.7-24-24-24zm152 16c-17.7 0-32 14.3-32 32s14.3 32 32 32h288c17.7 0 32-14.3 32-32s-14.3-32-32-32zm0 160c-17.7 0-32 14.3-32 32s14.3 32 32 32h288c17.7 0 32-14.3 32-32s-14.3-32-32-32zm0 160c-17.7 0-32 14.3-32 32s14.3 32 32 32h288c17.7 0 32-14.3 32-32s-14.3-32-32-32zM16 232v48c0 13.3 10.7 24 24 24h48c13.3 0 24-10.7 24-24v-48c0-13.3-10.7-24-24-24H40c-13.3 0-24 10.7-24 24m24 136c-13.3 0-24 10.7-24 24v48c0 13.3 10.7 24 24 24h48c13.3 0 24-10.7 24-24v-48c0-13.3-10.7-24-24-24z"></path></symbol>
<symbol viewBox="0 0 24 24" id="svg-spinners-180-ring"><path fill="currentColor" d="M12,4a8,8,0,0,1,7.89,6.7A1.53,1.53,0,0,0,21.38,12h0a1.5,1.5,0,0,0,1.48-1.75,11,11,0,0,0-21.72,0A1.5,1.5,0,0,0,2.62,12h0a1.53,1.53,0,0,0,1.49-1.3A8,8,0,0,1,12,4Z"></path></symbol>
<symbol viewBox="0 0 512 512" id="fa6-solid-envelope"><path fill="currentColor" d="M48 64C21.5 64 0 85.5 0 112c0 15.1 7.1 29.3 19.2 38.4l217.6 163.2c11.4 8.5 27 8.5 38.4 0l217.6-163.2c12.1-9.1 19.2-23.3 19.2-38.4c0-26.5-21.5-48-48-48zM0 176v208c0 35.3 28.7 64 64 64h384c35.3 0 64-28.7 64-64V176L294.4 339.2a63.9 63.9 0 0 1-76.8 0z"></path></symbol>
<symbol viewBox="0 0 512 512" id="fa6-solid-folder"><path fill="currentColor" d="M64 480h384c35.3 0 64-28.7 64-64V160c0-35.3-28.7-64-64-64H288c-10.1 0-19.6-4.7-25.6-12.8l-19.2-25.6C231.1 41.5 212.1 32 192 32H64C28.7 32 0 60.7 0 96v320c0 35.3 28.7 64 64 64"></path></symbol>
<symbol viewBox="0 0 384 512" id="fa6-solid-file-lines"><path fill="currentColor" d="M64 0C28.7 0 0 28.7 0 64v384c0 35.3 28.7 64 64 64h256c35.3 0 64-28.7 64-64V160H256c-17.7 0-32-14.3-32-32V0zm192 0v128h128zM112 256h160c8.8 0 16 7.2 16 16s-7.2 16-16 16H112c-8.8 0-16-7.2-16-16s7.2-16 16-16m0 64h160c8.8 0 16 7.2 16 16s-7.2 16-16 16H112c-8.8 0-16-7.2-16-16s7.2-16 16-16m0 64h160c8.8 0 16 7.2 16 16s-7.2 16-16 16H112c-8.8 0-16-7.2-16-16s7.2-16 16-16"></path></symbol>
<symbol viewBox="0 0 384 512" id="fa6-solid-file"><path fill="currentColor" d="M0 64C0 28.7 28.7 0 64 0h160v128c0 17.7 14.3 32 32 32h128v288c0 35.3-28.7 64-64 64H64c-35.3 0-64-28.7-64-64zm384 64H256V0z"></path></symbol>
<symbol viewBox="0 0 512 512" id="fa6-solid-cube"><path fill="currentColor" d="M234.5 5.7c13.9-5 29.1-5 43.1 0l192 68.6c25.4 9.1 42.4 33.2 42.4 60.3v242.9c0 27-17 51.2-42.5 60.3l-192 68.6c-13.9 5-29.1 5-43.1 0l-192-68.6C17 428.6 0 404.5 0 377.4V134.6c0-27 17-51.2 42.5-60.3zM256 66L82.3 128L256 190l173.7-62zm32 368.6l160-57.1v-188l-160 57.1z"></path></symbol>
<symbol viewBox="0 0 512 512" id="fa6-solid-folder-plus"><path fill="currentColor" d="M512 416c0 35.3-28.7 64-64 64H64c-35.3 0-64-28.7-64-64V96c0-35.3 28.7-64 64-64h128c20.1 0 39.1 9.5 51.2 25.6l19.2 25.6c6 8.1 15.5 12.8 25.6 12.8h160c35.3 0 64 28.7 64 64zm-280-40c0 13.3 10.7 24 24 24s24-10.7 24-24v-64h64c13.3 0 24-10.7 24-24s-10.7-24-24-24h-64v-64c0-13.3-10.7-24-24-24s-24 10.7-24 24v64h-64c-13.3 0-24 10.7-24 24s10.7 24 24 24h64z"></path></symbol>
<symbol viewBox="0 0 384 512" id="fa6-solid-file-medical"><path fill="currentColor" d="M64 0C28.7 0 0 28.7 0 64v384c0 35.3 28.7 64 64 64h256c35.3 0 64-28.7 64-64V160H256c-17.7 0-32-14.3-32-32V0zm192 0v128h128zm-96 240c0-8.8 7.2-16 16-16h32c8.8 0 16 7.2 16 16v48h48c8.8 0 16 7.2 16 16v32c0 8.8-7.2 16-16 16h-48v48c0 8.8-7.2 16-16 16h-32c-8.8 0-16-7.2-16-16v-48h-48c-8.8 0-16-7.2-16-16v-32c0-8.8 7.2-16 16-16h48z"></path></symbol>
<symbol viewBox="0 0 512 512" id="fa6-solid-rotate"><path fill="currentColor" d="M142.9 142.9c-17.5 17.5-30.1 38-37.8 59.8c-5.9 16.7-24.2 25.4-40.8 19.5S38.9 198 44.8 181.4c10.8-30.7 28.4-59.4 52.8-83.8c87.2-87.2 228.3-87.5 315.8-1L455 55c6.9-6.9 17.2-8.9 26.2-5.2S496 62.3 496 72v128c0 13.3-10.7 24-24 24H344c-9.7 0-18.5-5.8-22.2-14.8s-1.7-19.3 5.2-26.2l41.1-41.1c-62.6-61.5-163.1-61.2-225.3 1zM16 312c0-13.3 10.7-24 24-24h128c9.7 0 18.5 5.8 22.2 14.8s1.7 19.3-5.2 26.2l-41.1 41.1c62.6 61.5 163.1 61.2 225.3-1c17.5-17.5 30.1-38 37.8-59.8c5.9-16.7 24.2-25.4 40.8-19.5s25.4 24.2 19.5 40.8c-10.8 30.6-28.4 59.3-52.9 83.8c-87.2 87.2-228.3 87.5-315.8 1L57 457c-6.9 6.9-17.2 8.9-26.2 5.2S16 449.7 16 440V312.1z"></path></symbol>
<symbol viewBox="0 0 576 512" id="fa6-solid-eye"><path fill="currentColor" d="M288 32c-80.8 0-145.5 36.8-192.6 80.6C48.6 156 17.3 208 2.5 243.7c-3.3 7.9-3.3 16.7 0 24.6C17.3 304 48.6 356 95.4 399.4C142.5 443.2 207.2 480 288 480s145.5-36.8 192.6-80.6c46.8-43.5 78.1-95.4 93-131.1c3.3-7.9 3.3-16.7 0-24.6c-14.9-35.7-46.2-87.7-93-131.1C433.5 68.8 368.8 32 288 32M144 256a144 144 0 1 1 288 0a144 144 0 1 1-288 0m144-64c0 35.3-28.7 64-64 64c-7.1 0-13.9-1.2-20.3-3.3c-5.5-1.8-11.9 1.6-11.7 7.4c.3 6.9 1.3 13.8 3.2 20.7c13.7 51.2 66.4 81.6 117.6 67.9s81.6-66.4 67.9-117.6c-11.1-41.5-47.8-69.4-88.6-71.1c-5.8-.2-9.2 6.1-7.4 11.7c2.1 6.4 3.3 13.2 3.3 20.3"></path></symbol>
<symbol viewBox="0 0 640 512" id="fa6-solid-eye-slash"><path fill="currentColor" d="M38.8 5.1C28.4-3.1 13.3-1.2 5.1 9.2s-6.3 25.5 4.1 33.7l592 464c10.4 8.2 25.5 6.3 33.7-4.1s6.3-25.5-4.1-33.7l-105.2-82.4c39.6-40.6 66.4-86.1 79.9-118.4c3.3-7.9 3.3-16.7 0-24.6c-14.9-35.7-46.2-87.7-93-131.1C465.5 68.8 400.8 32 320 32c-68.2 0-125 26.3-169.3 60.8zm184.3 144.4c25.5-23.3 59.6-37.5 96.9-37.5c79.5 0 144 64.5 144 144c0 24.9-6.3 48.3-17.4 68.7L408 294.5c8.4-19.3 10.6-41.4 4.8-63.3c-11.1-41.5-47.8-69.4-88.6-71.1c-5.8-.2-9.2 6.1-7.4 11.7c2.1 6.4 3.3 13.2 3.3 20.3c0 10.2-2.4 19.8-6.6 28.3l-90.3-70.8zM373 389.9c-16.4 6.5-34.3 10.1-53 10.1c-79.5 0-144-64.5-144-144c0-6.9.5-13.6 1.4-20.2l-94.3-74.3c-22.8 29.7-39.1 59.3-48.6 82.2c-3.3 7.9-3.3 16.7 0 24.6c14.9 35.7 46.2 87.7 93 131.1c47 43.8 111.7 80.6 192.5 80.6c47.8 0 89.9-12.9 126.2-32.5z"></path></symbol>
<symbol viewBox="0 0 256 512" id="fa6-solid-i-cursor"><path fill="currentColor" d="M.1 29.3C-1.4 47 11.7 62.4 29.3 63.9l8 .7C70.5 67.3 96 95 96 128.3V224H64c-17.7 0-32 14.3-32 32s14.3 32 32 32h32v95.7c0 33.3-25.5 61-58.7 63.8l-8 .7C11.7 449.6-1.4 465 .1 482.7s16.9 30.7 34.5 29.2l8-.7c34.1-2.8 64.2-18.9 85.4-42.9c21.2 24 51.2 40 85.4 42.9l8 .7c17.6 1.5 33.1-11.6 34.5-29.2s-11.6-33.1-29.2-34.5l-8-.7c-33.2-2.8-58.7-30.5-58.7-63.8V288h32c17.7 0 32-14.3 32-32s-14.3-32-32-32h-32v-95.7c0-33.3 25.5-61 58.7-63.8l8-.7c17.6-1.5 30.7-16.9 29.2-34.5S239-1.4 221.3.1l-8 .7c-34.1 2.8-64.1 18.9-85.3 42.9c-21.2-24-51.2-40-85.4-42.9l-8-.7C17-1.4 1.6 11.7.1 29.3"></path></symbol>
<symbol viewBox="0 0 448 512" id="fa6-solid-trash"><path fill="currentColor" d="M135.2 17.7L128 32H32C14.3 32 0 46.3 0 64s14.3 32 32 32h384c17.7 0 32-14.3 32-32s-14.3-32-32-32h-96l-7.2-14.3C307.4 6.8 296.3 0 284.2 0H163.8c-12.1 0-23.2 6.8-28.6 17.7M416 128H32l21.2 339c1.6 25.3 22.6 45 47.9 45h245.8c25.3 0 46.3-19.7 47.9-45z"></path></symbol>
<symbol viewBox="0 0 384 512" id="fa6-solid-file-arrow-down"><path fill="currentColor" d="M64 0C28.7 0 0 28.7 0 64v384c0 35.3 28.7 64 64 64h256c35.3 0 64-28.7 64-64V160H256c-17.7 0-32-14.3-32-32V0zm192 0v128h128zm-40 232v102.1l31-31c9.4-9.4 24.6-9.4 33.9 0s9.4 24.6 0 33.9l-72 72c-9.4 9.4-24.6 9.4-33.9 0l-72-72c-9.4-9.4-9.4-24.6 0-33.9s24.6-9.4 33.9 0l31 31L168 232c0-13.3 10.7-24 24-24s24 10.7 24 24"></path></symbol>
<symbol viewBox="0 0 448 512" id="fa6-solid-floppy-disk"><path fill="currentColor" d="M64 32C28.7 32 0 60.7 0 96v320c0 35.3 28.7 64 64 64h320c35.3 0 64-28.7 64-64V173.3c0-17-6.7-33.3-18.7-45.3L352 50.7c-12-12-28.3-18.7-45.3-18.7zm0 96c0-17.7 14.3-32 32-32h192c17.7 0 32 14.3 32 32v64c0 17.7-14.3 32-32 32H96c-17.7 0-32-14.3-32-32zm160 160a64 64 0 1 1 0 128a64 64 0 1 1 0-128"></path></symbol>
<symbol viewBox="0 0 384 512" id="fa6-solid-file-arrow-up"><path fill="currentColor" d="M64 0C28.7 0 0 28.7 0 64v384c0 35.3 28.7 64 64 64h256c35.3 0 64-28.7 64-64V160H256c-17.7 0-32-14.3-32-32V0zm192 0v128h128zm-40 408c0 13.3-10.7 24-24 24s-24-10.7-24-24V305.9l-31 31c-9.4 9.4-24.6 9.4-33.9 0s-9.4-24.6 0-33.9l72-72c9.4-9.4 24.6-9.4 33.9 0l72 72c9.4 9.4 9.4 24.6 0 33.9s-24.6 9.4-33.9 0l-31-31z"></path></symbol>
<symbol viewBox="0 0 512 512" id="fa6-solid-circle"><path fill="currentColor" d="M256 512a256 256 0 1 0 0-512a256 256 0 1 0 0 512"></path></symbol>
<symbol viewBox="0 0 512 512" id="fa6-solid-gear"><path fill="currentColor" d="M495.9 166.6c3.2 8.7.5 18.4-6.4 24.6l-43.3 39.4c1.1 8.3 1.7 16.8 1.7 25.4s-.6 17.1-1.7 25.4l43.3 39.4c6.9 6.2 9.6 15.9 6.4 24.6c-4.4 11.9-9.7 23.3-15.8 34.3l-4.7 8.1c-6.6 11-14 21.4-22.1 31.2c-5.9 7.2-15.7 9.6-24.5 6.8l-55.7-17.7c-13.4 10.3-28.2 18.9-44 25.4l-12.5 57.1c-2 9.1-9 16.3-18.2 17.8c-13.8 2.3-28 3.5-42.5 3.5s-28.7-1.2-42.5-3.5c-9.2-1.5-16.2-8.7-18.2-17.8l-12.5-57.1c-15.8-6.5-30.6-15.1-44-25.4l-55.6 17.8c-8.8 2.8-18.6.3-24.5-6.8c-8.1-9.8-15.5-20.2-22.1-31.2l-4.7-8.1c-6.1-11-11.4-22.4-15.8-34.3c-3.2-8.7-.5-18.4 6.4-24.6l43.3-39.4c-1.1-8.4-1.7-16.9-1.7-25.5s.6-17.1 1.7-25.4l-43.3-39.4c-6.9-6.2-9.6-15.9-6.4-24.6c4.4-11.9 9.7-23.3 15.8-34.3l4.7-8.1c6.6-11 14-21.4 22.1-31.2c5.9-7.2 15.7-9.6 24.5-6.8l55.7 17.7c13.4-10.3 28.2-18.9 44-25.4l12.5-57.1c2-9.1 9-16.3 18.2-17.8C227.3 1.2 241.5 0 256 0s28.7 1.2 42.5 3.5c9.2 1.5 16.2 8.7 18.2 17.8l12.5 57.1c15.8 6.5 30.6 15.1 44 25.4l55.7-17.7c8.8-2.8 18.6-.3 24.5 6.8c8.1 9.8 15.5 20.2 22.1 31.2l4.7 8.1c6.1 11 11.4 22.4 15.8 34.3zM256 336a80 80 0 1 0 0-160a80 80 0 1 0 0 160"></path></symbol>
</defs>
</svg>
